name C:\Users\u0101727\Documents\MyRepositories\upper-imu-dc\Results\main_tracking\Case_44\FLX01_linearAccelerations_groundFrame.mot
datacolumns 4
datarows 70
range 0.51000000 1.20000000
endheader 
time	radius_imu_x	radius_imu_y	radius_imu_z	
          0.51000000	         -0.61176658	          9.94729615	         -0.33370976	
          0.52000000	         -0.60581634	          9.96343146	         -0.30061678	
          0.53000000	         -0.59931725	          9.97390782	         -0.27233505	
          0.54000000	         -0.58595802	          9.98799827	         -0.23510320	
          0.55000000	         -0.56892173	         10.00456548	         -0.19210671	
          0.56000000	         -0.54940780	         10.02451115	         -0.14218282	
          0.57000000	         -0.52833276	         10.04777227	         -0.08594135	
          0.58000000	         -0.50655093	         10.07410790	         -0.02441804	
          0.59000000	         -0.48455572	         10.10363349	          0.04191266	
          0.60000000	         -0.46292913	         10.13660423	          0.11197517	
          0.61000000	         -0.44255703	         10.17270693	          0.18513621	
          0.62000000	         -0.42383270	         10.21188445	          0.26030731	
          0.63000000	         -0.40721331	         10.25385684	          0.33560310	
          0.64000000	         -0.39304567	         10.29828771	          0.41018253	
          0.65000000	         -0.38133774	         10.34515252	          0.48308650	
          0.66000000	         -0.37219562	         10.39421335	          0.55278540	
          0.67000000	         -0.36586297	         10.44515747	          0.61786671	
          0.68000000	         -0.36298986	         10.49725749	          0.67702592	
          0.69000000	         -0.36380060	         10.54990852	          0.72941962	
          0.70000000	         -0.36820342	         10.60283581	          0.77428273	
          0.71000000	         -0.37626966	         10.65558569	          0.81101520	
          0.72000000	         -0.38784203	         10.70779573	          0.83877714	
          0.73000000	         -0.40279653	         10.75926887	          0.85759892	
          0.74000000	         -0.42140053	         10.80939444	          0.86775485	
          0.75000000	         -0.44359981	         10.85777724	          0.86965687	
          0.76000000	         -0.46915957	         10.90425833	          0.86364854	
          0.77000000	         -0.49785657	         10.94873414	          0.85042490	
          0.78000000	         -0.52947859	         10.99118270	          0.83076266	
          0.79000000	         -0.56396094	         11.03154424	          0.80614792	
          0.80000000	         -0.60117539	         11.06975825	          0.77775913	
          0.81000000	         -0.64068316	         11.10617143	          0.74699028	
          0.82000000	         -0.68231331	         11.14086914	          0.71457584	
          0.83000000	         -0.72573692	         11.17421433	          0.68133752	
          0.84000000	         -0.77118538	         11.20594226	          0.64743578	
          0.85000000	         -0.81892442	         11.23565603	          0.61316861	
          0.86000000	         -0.86905027	         11.26295775	          0.57815822	
          0.87000000	         -0.92150815	         11.28755110	          0.54205002	
          0.88000000	         -0.97626315	         11.30903349	          0.50462936	
          0.89000000	         -1.03320649	         11.32698005	          0.46591655	
          0.90000000	         -1.09200349	         11.34116230	          0.42611826	
          0.91000000	         -1.15211265	         11.35159036	          0.38555844	
          0.92000000	         -1.21285715	         11.35847681	          0.34470366	
          0.93000000	         -1.27344737	         11.36225512	          0.30419258	
          0.94000000	         -1.33300821	         11.36358576	          0.26476555	
          0.95000000	         -1.39070190	         11.36322832	          0.22704565	
          0.96000000	         -1.44593221	         11.36176373	          0.19125616	
          0.97000000	         -1.49851350	         11.35929260	          0.15702409	
          0.98000000	         -1.54872867	         11.35523196	          0.12334079	
          0.99000000	         -1.59724627	         11.34828216	          0.08869011	
          1.00000000	         -1.64488804	         11.33662846	          0.05134998	
          1.01000000	         -1.69229488	         11.31836251	          0.00980391	
          1.02000000	         -1.73963866	         11.29194513	         -0.03691699	
          1.03000000	         -1.78652945	         11.25647883	         -0.08912459	
          1.04000000	         -1.83212192	         11.21172377	         -0.14658199	
          1.05000000	         -1.87531321	         11.15796449	         -0.20869669	
          1.06000000	         -1.91491230	         11.09584829	         -0.27470988	
          1.07000000	         -1.94976336	         11.02621962	         -0.34385997	
          1.08000000	         -1.97883807	         10.94996805	         -0.41549653	
          1.09000000	         -2.00127292	         10.86794074	         -0.48912552	
          1.10000000	         -2.01636332	         10.78093976	         -0.56437497	
          1.11000000	         -2.02351969	         10.68979607	         -0.64092123	
          1.12000000	         -2.02223774	         10.59545957	         -0.71841104	
          1.13000000	         -2.01208832	         10.49904481	         -0.79643384	
          1.14000000	         -1.99273059	         10.40180616	         -0.87455386	
          1.15000000	         -1.96395021	         10.30504627	         -0.95237471	
          1.16000000	         -1.92571810	         10.20996919	         -1.02959525	
          1.17000000	         -1.87823871	         10.11752450	         -1.10604477	
          1.18000000	         -1.82195635	         10.02830459	         -1.18169935	
          1.19000000	         -1.75752583	          9.94250850	         -1.25665190	
          1.20000000	         -1.68576131	          9.85996810	         -1.33105084	
